<mxfile host="app.diagrams.net" modified="2023-09-05T18:16:50.666Z" agent="Mozilla/5.0 (X11; Linux x86_64; rv:109.0) Gecko/20100101 Firefox/117.0" etag="EcA7M3yBsSp98wCH19Vl" version="21.7.2" type="github">
  <diagram id="C5RBs43oDa-KdzZeNtuy" name="Page-1">
    <mxGraphModel dx="481" dy="718" grid="1" gridSize="10" guides="1" tooltips="1" connect="1" arrows="1" fold="1" page="1" pageScale="1" pageWidth="827" pageHeight="1169" math="0" shadow="0">
      <root>
        <mxCell id="WIyWlLk6GJQsqaUBKTNV-0" />
        <mxCell id="WIyWlLk6GJQsqaUBKTNV-1" parent="WIyWlLk6GJQsqaUBKTNV-0" />
        <mxCell id="6UUb83-wT3MryLMKem0V-0" value="Dados" style="shape=folder;fontStyle=1;spacingTop=0;tabWidth=120;tabHeight=20;tabPosition=left;html=1;whiteSpace=wrap;align=left;verticalAlign=top;labelPosition=center;verticalLabelPosition=middle;horizontal=1;spacing=0;spacingLeft=2;fillColor=none;" parent="WIyWlLk6GJQsqaUBKTNV-1" vertex="1">
          <mxGeometry x="80" y="100" width="400" height="340" as="geometry" />
        </mxCell>
        <mxCell id="6UUb83-wT3MryLMKem0V-2" value="&lt;div&gt;Negocio&lt;/div&gt;" style="shape=folder;fontStyle=1;spacingTop=0;tabWidth=120;tabHeight=20;tabPosition=left;html=1;whiteSpace=wrap;align=left;verticalAlign=top;labelPosition=center;verticalLabelPosition=middle;horizontal=1;spacing=0;spacingLeft=2;fillColor=none;" parent="WIyWlLk6GJQsqaUBKTNV-1" vertex="1">
          <mxGeometry x="80" y="460" width="480" height="340" as="geometry" />
        </mxCell>
        <mxCell id="6UUb83-wT3MryLMKem0V-3" value="Apresentacao" style="shape=folder;fontStyle=1;spacingTop=0;tabWidth=120;tabHeight=20;tabPosition=left;html=1;whiteSpace=wrap;align=left;verticalAlign=top;labelPosition=center;verticalLabelPosition=middle;horizontal=1;spacing=0;spacingLeft=2;fillColor=none;" parent="WIyWlLk6GJQsqaUBKTNV-1" vertex="1">
          <mxGeometry x="600" y="100" width="480" height="340" as="geometry" />
        </mxCell>
        <mxCell id="6UUb83-wT3MryLMKem0V-4" value="&lt;b&gt;Usuario&lt;/b&gt;" style="swimlane;fontStyle=0;childLayout=stackLayout;horizontal=1;startSize=20;fillColor=none;horizontalStack=0;resizeParent=1;resizeParentMax=0;resizeLast=0;collapsible=1;marginBottom=0;whiteSpace=wrap;html=1;" parent="WIyWlLk6GJQsqaUBKTNV-1" vertex="1">
          <mxGeometry x="100" y="140" width="160" height="108" as="geometry">
            <mxRectangle x="80" y="480" width="160" height="20" as="alternateBounds" />
          </mxGeometry>
        </mxCell>
        <mxCell id="6UUb83-wT3MryLMKem0V-12" value="&lt;div style=&quot;font-size: 10px;&quot;&gt;- email: String&lt;/div&gt;" style="text;strokeColor=none;fillColor=none;align=left;verticalAlign=middle;spacingLeft=2;spacingRight=2;overflow=hidden;rotatable=0;points=[[0,0.5],[1,0.5]];portConstraint=eastwest;whiteSpace=wrap;html=1;spacing=0;fontSize=10;" parent="6UUb83-wT3MryLMKem0V-4" vertex="1">
          <mxGeometry y="20" width="160" height="20" as="geometry" />
        </mxCell>
        <mxCell id="6UUb83-wT3MryLMKem0V-19" value="&lt;div style=&quot;font-size: 10px;&quot;&gt;- senha: String&lt;/div&gt;" style="text;strokeColor=none;fillColor=none;align=left;verticalAlign=middle;spacingLeft=2;spacingRight=2;overflow=hidden;rotatable=0;points=[[0,0.5],[1,0.5]];portConstraint=eastwest;whiteSpace=wrap;html=1;spacing=0;fontSize=10;" parent="6UUb83-wT3MryLMKem0V-4" vertex="1">
          <mxGeometry y="40" width="160" height="20" as="geometry" />
        </mxCell>
        <mxCell id="6UUb83-wT3MryLMKem0V-31" value="&lt;div style=&quot;font-size: 10px;&quot;&gt;- nome: String&lt;/div&gt;" style="text;strokeColor=none;fillColor=none;align=left;verticalAlign=middle;spacingLeft=2;spacingRight=2;overflow=hidden;rotatable=0;points=[[0,0.5],[1,0.5]];portConstraint=eastwest;whiteSpace=wrap;html=1;spacing=0;fontSize=10;" parent="6UUb83-wT3MryLMKem0V-4" vertex="1">
          <mxGeometry y="60" width="160" height="20" as="geometry" />
        </mxCell>
        <mxCell id="6UUb83-wT3MryLMKem0V-16" value="" style="line;strokeWidth=1;fillColor=none;align=left;verticalAlign=middle;spacingTop=-1;spacingLeft=3;spacingRight=3;rotatable=0;labelPosition=right;points=[];portConstraint=eastwest;strokeColor=inherit;" parent="6UUb83-wT3MryLMKem0V-4" vertex="1">
          <mxGeometry y="80" width="160" height="8" as="geometry" />
        </mxCell>
        <mxCell id="6UUb83-wT3MryLMKem0V-18" value="&lt;div style=&quot;font-size: 10px;&quot;&gt;+ field: type&lt;/div&gt;" style="text;strokeColor=none;fillColor=none;align=left;verticalAlign=middle;spacingLeft=2;spacingRight=2;overflow=hidden;rotatable=0;points=[[0,0.5],[1,0.5]];portConstraint=eastwest;whiteSpace=wrap;html=1;spacing=0;fontSize=10;" parent="6UUb83-wT3MryLMKem0V-4" vertex="1">
          <mxGeometry y="88" width="160" height="20" as="geometry" />
        </mxCell>
        <mxCell id="6UUb83-wT3MryLMKem0V-25" value="&lt;b&gt;Email&lt;/b&gt;" style="swimlane;fontStyle=0;childLayout=stackLayout;horizontal=1;startSize=20;fillColor=none;horizontalStack=0;resizeParent=1;resizeParentMax=0;resizeLast=0;collapsible=1;marginBottom=0;whiteSpace=wrap;html=1;" parent="WIyWlLk6GJQsqaUBKTNV-1" vertex="1">
          <mxGeometry x="300" y="140" width="160" height="148" as="geometry">
            <mxRectangle x="80" y="480" width="160" height="20" as="alternateBounds" />
          </mxGeometry>
        </mxCell>
        <mxCell id="6UUb83-wT3MryLMKem0V-26" value="&lt;div style=&quot;font-size: 10px;&quot;&gt;- remetente: Usuario&lt;/div&gt;" style="text;strokeColor=none;fillColor=none;align=left;verticalAlign=middle;spacingLeft=2;spacingRight=2;overflow=hidden;rotatable=0;points=[[0,0.5],[1,0.5]];portConstraint=eastwest;whiteSpace=wrap;html=1;spacing=0;fontSize=10;" parent="6UUb83-wT3MryLMKem0V-25" vertex="1">
          <mxGeometry y="20" width="160" height="20" as="geometry" />
        </mxCell>
        <mxCell id="6UUb83-wT3MryLMKem0V-27" value="&lt;div style=&quot;font-size: 10px;&quot;&gt;- destinatario: Usuario&lt;/div&gt;" style="text;strokeColor=none;fillColor=none;align=left;verticalAlign=middle;spacingLeft=2;spacingRight=2;overflow=hidden;rotatable=0;points=[[0,0.5],[1,0.5]];portConstraint=eastwest;whiteSpace=wrap;html=1;spacing=0;fontSize=10;" parent="6UUb83-wT3MryLMKem0V-25" vertex="1">
          <mxGeometry y="40" width="160" height="20" as="geometry" />
        </mxCell>
        <mxCell id="6UUb83-wT3MryLMKem0V-32" value="&lt;div style=&quot;font-size: 10px;&quot;&gt;- mensagem: String&lt;/div&gt;" style="text;strokeColor=none;fillColor=none;align=left;verticalAlign=middle;spacingLeft=2;spacingRight=2;overflow=hidden;rotatable=0;points=[[0,0.5],[1,0.5]];portConstraint=eastwest;whiteSpace=wrap;html=1;spacing=0;fontSize=10;" parent="6UUb83-wT3MryLMKem0V-25" vertex="1">
          <mxGeometry y="60" width="160" height="20" as="geometry" />
        </mxCell>
        <mxCell id="6UUb83-wT3MryLMKem0V-33" value="&lt;div style=&quot;font-size: 10px;&quot;&gt;- dataHora: LocalDateTime&lt;/div&gt;" style="text;strokeColor=none;fillColor=none;align=left;verticalAlign=middle;spacingLeft=2;spacingRight=2;overflow=hidden;rotatable=0;points=[[0,0.5],[1,0.5]];portConstraint=eastwest;whiteSpace=wrap;html=1;spacing=0;fontSize=10;" parent="6UUb83-wT3MryLMKem0V-25" vertex="1">
          <mxGeometry y="80" width="160" height="20" as="geometry" />
        </mxCell>
        <mxCell id="UXAAhCieMoi_uCVgCP8r-7" value="&lt;div style=&quot;font-size: 10px;&quot;&gt;- preResposta: Email&lt;/div&gt;" style="text;strokeColor=none;fillColor=none;align=left;verticalAlign=middle;spacingLeft=2;spacingRight=2;overflow=hidden;rotatable=0;points=[[0,0.5],[1,0.5]];portConstraint=eastwest;whiteSpace=wrap;html=1;spacing=0;fontSize=10;" vertex="1" parent="6UUb83-wT3MryLMKem0V-25">
          <mxGeometry y="100" width="160" height="20" as="geometry" />
        </mxCell>
        <mxCell id="6UUb83-wT3MryLMKem0V-28" value="" style="line;strokeWidth=1;fillColor=none;align=left;verticalAlign=middle;spacingTop=-1;spacingLeft=3;spacingRight=3;rotatable=0;labelPosition=right;points=[];portConstraint=eastwest;strokeColor=inherit;" parent="6UUb83-wT3MryLMKem0V-25" vertex="1">
          <mxGeometry y="120" width="160" height="8" as="geometry" />
        </mxCell>
        <mxCell id="6UUb83-wT3MryLMKem0V-29" value="&lt;div style=&quot;font-size: 10px;&quot;&gt;+ field: type&lt;/div&gt;" style="text;strokeColor=none;fillColor=none;align=left;verticalAlign=middle;spacingLeft=2;spacingRight=2;overflow=hidden;rotatable=0;points=[[0,0.5],[1,0.5]];portConstraint=eastwest;whiteSpace=wrap;html=1;spacing=0;fontSize=10;" parent="6UUb83-wT3MryLMKem0V-25" vertex="1">
          <mxGeometry y="128" width="160" height="20" as="geometry" />
        </mxCell>
        <mxCell id="6UUb83-wT3MryLMKem0V-36" value="&lt;b&gt;Principal&lt;/b&gt;" style="swimlane;fontStyle=0;childLayout=stackLayout;horizontal=1;startSize=20;fillColor=none;horizontalStack=0;resizeParent=1;resizeParentMax=0;resizeLast=0;collapsible=1;marginBottom=0;whiteSpace=wrap;html=1;" parent="WIyWlLk6GJQsqaUBKTNV-1" vertex="1">
          <mxGeometry x="620" y="140" width="160" height="148" as="geometry">
            <mxRectangle x="80" y="480" width="160" height="20" as="alternateBounds" />
          </mxGeometry>
        </mxCell>
        <mxCell id="6UUb83-wT3MryLMKem0V-37" value="&lt;div style=&quot;font-size: 10px;&quot;&gt;- remetente: Usuario&lt;/div&gt;" style="text;strokeColor=none;fillColor=none;align=left;verticalAlign=middle;spacingLeft=2;spacingRight=2;overflow=hidden;rotatable=0;points=[[0,0.5],[1,0.5]];portConstraint=eastwest;whiteSpace=wrap;html=1;spacing=0;fontSize=10;" parent="6UUb83-wT3MryLMKem0V-36" vertex="1">
          <mxGeometry y="20" width="160" height="20" as="geometry" />
        </mxCell>
        <mxCell id="6UUb83-wT3MryLMKem0V-38" value="&lt;div style=&quot;font-size: 10px;&quot;&gt;- destinatario: Usuario&lt;/div&gt;" style="text;strokeColor=none;fillColor=none;align=left;verticalAlign=middle;spacingLeft=2;spacingRight=2;overflow=hidden;rotatable=0;points=[[0,0.5],[1,0.5]];portConstraint=eastwest;whiteSpace=wrap;html=1;spacing=0;fontSize=10;" parent="6UUb83-wT3MryLMKem0V-36" vertex="1">
          <mxGeometry y="40" width="160" height="20" as="geometry" />
        </mxCell>
        <mxCell id="6UUb83-wT3MryLMKem0V-39" value="&lt;div style=&quot;font-size: 10px;&quot;&gt;- mensagem: String&lt;/div&gt;" style="text;strokeColor=none;fillColor=none;align=left;verticalAlign=middle;spacingLeft=2;spacingRight=2;overflow=hidden;rotatable=0;points=[[0,0.5],[1,0.5]];portConstraint=eastwest;whiteSpace=wrap;html=1;spacing=0;fontSize=10;" parent="6UUb83-wT3MryLMKem0V-36" vertex="1">
          <mxGeometry y="60" width="160" height="20" as="geometry" />
        </mxCell>
        <mxCell id="6UUb83-wT3MryLMKem0V-40" value="&lt;div style=&quot;font-size: 10px;&quot;&gt;- data: String&lt;/div&gt;" style="text;strokeColor=none;fillColor=none;align=left;verticalAlign=middle;spacingLeft=2;spacingRight=2;overflow=hidden;rotatable=0;points=[[0,0.5],[1,0.5]];portConstraint=eastwest;whiteSpace=wrap;html=1;spacing=0;fontSize=10;" parent="6UUb83-wT3MryLMKem0V-36" vertex="1">
          <mxGeometry y="80" width="160" height="20" as="geometry" />
        </mxCell>
        <mxCell id="6UUb83-wT3MryLMKem0V-41" value="&lt;div style=&quot;font-size: 10px;&quot;&gt;- hora: String&lt;/div&gt;" style="text;strokeColor=none;fillColor=none;align=left;verticalAlign=middle;spacingLeft=2;spacingRight=2;overflow=hidden;rotatable=0;points=[[0,0.5],[1,0.5]];portConstraint=eastwest;whiteSpace=wrap;html=1;spacing=0;fontSize=10;" parent="6UUb83-wT3MryLMKem0V-36" vertex="1">
          <mxGeometry y="100" width="160" height="20" as="geometry" />
        </mxCell>
        <mxCell id="6UUb83-wT3MryLMKem0V-42" value="" style="line;strokeWidth=1;fillColor=none;align=left;verticalAlign=middle;spacingTop=-1;spacingLeft=3;spacingRight=3;rotatable=0;labelPosition=right;points=[];portConstraint=eastwest;strokeColor=inherit;" parent="6UUb83-wT3MryLMKem0V-36" vertex="1">
          <mxGeometry y="120" width="160" height="8" as="geometry" />
        </mxCell>
        <mxCell id="6UUb83-wT3MryLMKem0V-43" value="&lt;div style=&quot;font-size: 10px;&quot;&gt;+ field: type&lt;/div&gt;" style="text;strokeColor=none;fillColor=none;align=left;verticalAlign=middle;spacingLeft=2;spacingRight=2;overflow=hidden;rotatable=0;points=[[0,0.5],[1,0.5]];portConstraint=eastwest;whiteSpace=wrap;html=1;spacing=0;fontSize=10;" parent="6UUb83-wT3MryLMKem0V-36" vertex="1">
          <mxGeometry y="128" width="160" height="20" as="geometry" />
        </mxCell>
        <mxCell id="UXAAhCieMoi_uCVgCP8r-0" value="&lt;b&gt;Sistema&lt;/b&gt;" style="swimlane;fontStyle=0;childLayout=stackLayout;horizontal=1;startSize=20;fillColor=none;horizontalStack=0;resizeParent=1;resizeParentMax=0;resizeLast=0;collapsible=1;marginBottom=0;whiteSpace=wrap;html=1;" vertex="1" parent="WIyWlLk6GJQsqaUBKTNV-1">
          <mxGeometry x="100" y="500" width="160" height="68" as="geometry">
            <mxRectangle x="80" y="480" width="160" height="20" as="alternateBounds" />
          </mxGeometry>
        </mxCell>
        <mxCell id="UXAAhCieMoi_uCVgCP8r-1" value="&lt;div style=&quot;font-size: 10px;&quot;&gt;- numUsuarios: int&lt;/div&gt;" style="text;strokeColor=none;fillColor=none;align=left;verticalAlign=middle;spacingLeft=2;spacingRight=2;overflow=hidden;rotatable=0;points=[[0,0.5],[1,0.5]];portConstraint=eastwest;whiteSpace=wrap;html=1;spacing=0;fontSize=10;" vertex="1" parent="UXAAhCieMoi_uCVgCP8r-0">
          <mxGeometry y="20" width="160" height="20" as="geometry" />
        </mxCell>
        <mxCell id="UXAAhCieMoi_uCVgCP8r-4" value="" style="line;strokeWidth=1;fillColor=none;align=left;verticalAlign=middle;spacingTop=-1;spacingLeft=3;spacingRight=3;rotatable=0;labelPosition=right;points=[];portConstraint=eastwest;strokeColor=inherit;" vertex="1" parent="UXAAhCieMoi_uCVgCP8r-0">
          <mxGeometry y="40" width="160" height="8" as="geometry" />
        </mxCell>
        <mxCell id="UXAAhCieMoi_uCVgCP8r-5" value="&lt;div style=&quot;font-size: 10px;&quot;&gt;+ field: type&lt;/div&gt;" style="text;strokeColor=none;fillColor=none;align=left;verticalAlign=middle;spacingLeft=2;spacingRight=2;overflow=hidden;rotatable=0;points=[[0,0.5],[1,0.5]];portConstraint=eastwest;whiteSpace=wrap;html=1;spacing=0;fontSize=10;" vertex="1" parent="UXAAhCieMoi_uCVgCP8r-0">
          <mxGeometry y="48" width="160" height="20" as="geometry" />
        </mxCell>
      </root>
    </mxGraphModel>
  </diagram>
</mxfile>
